<svg width="24" height="24" fill="none" xmlns="http://www.w3.org/2000/svg">
  <g clip-path="url(#a)" fill="#fff">
    <path
      d="M7.78 15.5h12.7a.7.7 0 0 0 .68-.5l2.81-9.8a.7.7 0 0 0-.67-.9H6.16l-.5-2.25a.7.7 0 0 0-.7-.55H.7a.7.7 0 1 0 0 1.4h3.7l2.54 11.37a2.1 2.1 0 0 0 .84 4.03h12.7a.7.7 0 1 0 0-1.4H7.78a.7.7 0 0 1-.7-.7c0-.39.31-.7.7-.7Z" />
    <path
      d="M7.08 20.4a2.1 2.1 0 0 0 4.22 0 2.1 2.1 0 0 0-4.22 0ZM16.97 20.4a2.1 2.1 0 0 0 4.22 0 2.1 2.1 0 0 0-4.22 0Z" />
  </g>
  <defs>
    <clipPath id="a">
      <path fill="#fff" d="M0 0h24v24H0z" />
    </clipPath>
  </defs>
</svg>